HIERARCHY
ROOT Pelvis
{
	OFFSET 0.000000 0.000000 0.000000
	CHANNELS 6 Xposition Yposition Zposition Xrotation Yrotation Zrotation
	JOINT LeftUpLeg_virtual
	{
		OFFSET 0.000000 0.000000 0.000000
		CHANNELS 3 Xrotation Yrotation Zrotation
		JOINT LeftUpLeg
		{
			OFFSET 8.479700 -4.795502 -0.379100
			CHANNELS 3 Xrotation Yrotation Zrotation
			JOINT LeftLeg
			{
				OFFSET 0.024144 -32.555107 0.112900
				CHANNELS 3 Xrotation Yrotation Zrotation
				JOINT LeftFoot
				{
					OFFSET -0.024144 -32.638630 -3.012600
					CHANNELS 3 Xrotation Yrotation Zrotation
					JOINT LeftToeBase
					{
						OFFSET 0.970200 -13.225400 11.864200
						CHANNELS 3 Xrotation Yrotation Zrotation
						End Site
						{
							OFFSET 0 0 0
						}
					}
				}
			}
		}
	}
	JOINT RightUpLeg_virtual
	{
		OFFSET 0.000000 0.000000 0.000000
		CHANNELS 3 Xrotation Yrotation Zrotation
		JOINT RightUpLeg
		{
			OFFSET -8.479700 -4.795502 -0.379100
			CHANNELS 3 Xrotation Yrotation Zrotation
			JOINT RightLeg
			{
				OFFSET -0.023144 -32.555092 0.112900
				CHANNELS 3 Xrotation Yrotation Zrotation
				JOINT RightFoot
				{
					OFFSET 0.023144 -32.638641 -3.012700
					CHANNELS 3 Xrotation Yrotation Zrotation
					JOINT RightToeBase
					{
						OFFSET -0.970200 -13.225400 11.864200
						CHANNELS 3 Xrotation Yrotation Zrotation
						End Site
						{
							OFFSET 0 0 0
						}
					}
				}
			}
		}
	}
	JOINT Hips_virtual
	{
		OFFSET 0.000000 0.000000 0.000000
		CHANNELS 3 Xrotation Yrotation Zrotation
		JOINT Hips
		{
			OFFSET -0.000000 -0.000000 -0.000000
			CHANNELS 3 Xrotation Yrotation Zrotation
			JOINT Spine
			{
				OFFSET 0.000000 7.722000 1.166200
				CHANNELS 3 Xrotation Yrotation Zrotation
				JOINT Spine1
				{
					OFFSET 0.000000 12.024101 0.248800
					CHANNELS 3 Xrotation Yrotation Zrotation
					JOINT Spine2
					{
						OFFSET 0.000000 11.502998 -0.491200
						CHANNELS 3 Xrotation Yrotation Zrotation
						JOINT Neck_virtual
						{
							OFFSET 0.000000 0.000000 0.000000
							CHANNELS 3 Xrotation Yrotation Zrotation
							JOINT Neck
							{
								OFFSET 0.000000 18.430702 -3.123100
								CHANNELS 3 Xrotation Yrotation Zrotation
								JOINT Head
								{
									OFFSET 0.000000 9.051102 1.034000
									CHANNELS 3 Xrotation Yrotation Zrotation
									End Site
									{
										OFFSET 0 0 0
									}
								}
							}
						}
						JOINT LeftShoulder_virtual
						{
							OFFSET 0.000000 0.000000 0.000000
							CHANNELS 3 Xrotation Yrotation Zrotation
							JOINT LeftShoulder
							{
								OFFSET 6.197800 13.665199 -4.064700
								CHANNELS 3 Xrotation Yrotation Zrotation
								JOINT LeftArm
								{
									OFFSET 7.778100 -0.187103 -1.709300
									CHANNELS 3 Xrotation Yrotation Zrotation
									JOINT LeftForeArm
									{
										OFFSET 22.049376 0.000000 0.000000
										CHANNELS 3 Xrotation Yrotation Zrotation
										JOINT LeftHand
										{
											OFFSET 23.009392 0.000000 0.000000
											CHANNELS 3 Xrotation Yrotation Zrotation
											End Site
											{
												OFFSET 0 0 0
											}
										}
									}
								}
							}
						}
						JOINT RightShoulder_virtual
						{
							OFFSET 0.000000 0.000000 0.000000
							CHANNELS 3 Xrotation Yrotation Zrotation
							JOINT RightShoulder
							{
								OFFSET -6.197800 13.665199 -4.064700
								CHANNELS 3 Xrotation Yrotation Zrotation
								JOINT RightArm
								{
									OFFSET -7.778100 -0.187103 -1.709300
									CHANNELS 3 Xrotation Yrotation Zrotation
									JOINT RightForeArm
									{
										OFFSET -22.049376 0.000000 0.000000
										CHANNELS 3 Xrotation Yrotation Zrotation
										JOINT RightHand
										{
											OFFSET -23.009392 0.000000 0.000000
											CHANNELS 3 Xrotation Yrotation Zrotation
											End Site
											{
												OFFSET 0 0 0
											}
										}
									}
								}
							}
						}
					}
				}
			}
		}
	}
}
MOTION
Frames: 11
Frame Time: 0.03333333
2.939264 157.241180 -24.100658 0.000000 0.000000 0.000000 5.211468 -7.130880 0.488184 -93.392202 13.696262 23.189694 96.757635 2.519558 5.582170 -2.935763 9.121789 -28.041164 0.000000 0.000000 0.000000 5.211468 -7.130880 0.488184 -105.680088 8.409824 -11.293229 105.954587 -6.875644 -1.953025 6.414261 -9.057265 34.521081 0.000000 0.000000 0.000000 5.211468 -7.130880 0.488184 0.000000 0.000000 0.000000 8.443133 -0.988546 -0.819483 16.887417 -1.177193 -1.114028 0.000000 0.000000 0.000000 16.887422 -1.177190 -1.114030 -26.807210 6.493740 -1.451445 0.000000 0.000000 0.000000 16.887422 -1.177190 -1.114030 -0.612880 -14.977172 27.292789 -67.334751 -8.203794 -15.014250 16.808232 -68.480248 48.052987 0.000000 0.000000 0.000000 16.887422 -1.177190 -1.114030 6.218777 17.756043 -13.894191 -82.947962 43.284514 24.548745 -18.192468 53.742456 -21.031659 0.000000 0.000000 0.000000 
3.131818 157.095337 -25.113625 0.000000 0.000000 0.000000 3.845316 -7.421040 0.437884 -96.085715 12.181480 23.384829 96.440775 0.980153 4.006263 -3.106702 9.192337 -27.953464 0.000000 0.000000 0.000000 3.845316 -7.421040 0.437884 -106.311785 5.949301 -11.946091 102.314164 -4.372346 -2.488788 5.142265 -8.976646 33.554500 0.000000 0.000000 0.000000 3.845316 -7.421040 0.437884 0.000000 0.000000 0.000000 9.096308 -0.735611 -0.730433 18.191671 -0.858378 -1.119250 0.000000 0.000000 0.000000 18.191659 -0.858374 -1.119251 -27.539473 7.278516 -1.689584 0.000000 0.000000 0.000000 18.191659 -0.858374 -1.119251 0.325176 -15.904567 27.503502 -69.510589 -10.660071 -14.371486 10.803162 -66.204265 45.525533 0.000000 0.000000 0.000000 18.191659 -0.858374 -1.119251 6.708631 18.898923 -14.296312 -85.364100 45.042420 22.649409 -20.331791 51.306212 -20.083200 0.000000 0.000000 0.000000 
3.278997 156.919968 -26.077888 0.000000 0.000000 0.000000 2.542864 -7.599435 0.445038 -97.694088 11.396522 23.046636 94.195351 -0.639950 2.879448 -2.673423 9.023751 -27.319618 0.000000 0.000000 0.000000 2.542864 -7.599435 0.445038 -105.684289 3.158179 -12.614012 97.363950 -1.509102 -2.707566 3.231411 -8.837713 31.274432 0.000000 0.000000 0.000000 2.542864 -7.599435 0.445038 0.000000 0.000000 0.000000 9.691427 -0.471090 -0.648746 19.380865 -0.593882 -1.137937 0.000000 0.000000 0.000000 19.380867 -0.593885 -1.137935 -27.906162 8.033923 -1.876917 0.000000 0.000000 0.000000 19.380867 -0.593885 -1.137935 1.416563 -16.917217 27.896832 -71.463914 -13.211103 -13.429061 5.023482 -63.827250 43.312446 0.000000 0.000000 0.000000 19.380867 -0.593885 -1.137935 7.401558 20.145759 -15.002640 -85.334799 46.412249 18.300099 -22.943299 49.160228 -18.542907 0.000000 0.000000 0.000000 
3.362662 156.706665 -26.964573 0.000000 0.000000 0.000000 1.364134 -7.697136 0.505484 -97.928322 11.350045 22.257606 90.188318 -2.463936 2.144284 -2.062458 8.728012 -25.911829 0.000000 0.000000 0.000000 1.364134 -7.697136 0.505484 -103.785551 0.142907 -13.191378 91.165233 1.504447 -2.592527 1.026707 -8.530314 27.774416 0.000000 0.000000 0.000000 1.364134 -7.697136 0.505484 0.000000 0.000000 0.000000 10.216539 -0.228505 -0.575621 20.431042 -0.404105 -1.150168 0.000000 0.000000 0.000000 20.431036 -0.404108 -1.150167 -27.891902 8.715288 -1.992548 0.000000 0.000000 0.000000 20.431036 -0.404108 -1.150167 2.554323 -17.796343 28.564114 -72.885085 -15.245546 -11.944090 -0.383334 -61.659779 41.125074 0.000000 0.000000 0.000000 20.431036 -0.404108 -1.150167 8.191198 21.269078 -15.938335 -83.291329 47.315869 12.192937 -25.736547 47.219645 -16.682266 0.000000 0.000000 0.000000 
3.372069 156.407379 -27.729294 0.000000 0.000000 0.000000 0.337871 -7.759558 0.591164 -97.014354 11.859368 21.191765 84.880523 -4.416626 1.813251 -0.685054 8.024560 -23.609662 0.000000 0.000000 0.000000 0.337871 -7.759558 0.591164 -100.841780 -3.001967 -13.596479 83.954438 4.361550 -2.181552 -0.900502 -7.916105 23.468887 0.000000 0.000000 0.000000 0.337871 -7.759558 0.591164 0.000000 0.000000 0.000000 10.659041 -0.018320 -0.501055 21.316525 -0.290757 -1.141271 0.000000 0.000000 0.000000 21.316525 -0.290756 -1.141270 -27.499853 9.287819 -2.027717 0.000000 0.000000 0.000000 21.316525 -0.290756 -1.141270 3.604439 -18.354381 29.488027 -73.580788 -16.357434 -9.940296 -5.383956 -59.850120 38.716890 0.000000 0.000000 0.000000 21.316525 -0.290756 -1.141270 8.955277 22.064439 -17.026263 -80.139108 47.684242 5.475449 -28.400632 45.367274 -14.783333 0.000000 0.000000 0.000000 
3.305137 155.968323 -28.333977 0.000000 0.000000 0.000000 -0.543639 -7.808846 0.685560 -95.242801 12.791688 20.029516 78.837254 -6.384066 1.746365 1.605473 6.993133 -20.317251 0.000000 0.000000 0.000000 -0.543639 -7.808846 0.685560 -97.228883 -6.189687 -13.814785 76.132833 6.754672 -1.561108 -2.021746 -6.935223 19.006133 0.000000 0.000000 0.000000 -0.543639 -7.808846 0.685560 0.000000 0.000001 0.000000 11.009030 0.142041 -0.427130 22.017098 -0.240820 -1.105278 0.000000 0.000000 0.000000 22.017103 -0.240818 -1.105278 -26.753801 9.732048 -1.986497 0.000000 0.000000 0.000000 22.017103 -0.240818 -1.105278 4.435855 -18.482755 30.580888 -73.590780 -16.431787 -7.699385 -9.997818 -58.359097 35.945889 0.000000 0.000000 0.000000 22.017103 -0.240818 -1.105278 9.606998 22.384661 -18.252321 -76.857387 47.554475 -0.696429 -30.694781 43.545707 -13.085778 0.000000 0.000000 0.000000 
3.167725 155.348541 -28.760857 0.000000 0.000000 0.000000 -1.322462 -7.832011 0.791437 -92.721922 14.118705 18.887785 72.534007 -8.417381 1.699046 3.921542 6.165050 -16.116398 0.000000 0.000000 0.000000 -1.322462 -7.832011 0.791437 -93.408731 -9.326738 -13.899951 68.282296 8.460317 -0.855730 -2.076624 -5.644632 15.048175 0.000000 0.000000 0.000000 -1.322462 -7.832011 0.791437 0.000000 0.000000 0.000000 11.262847 0.223556 -0.367819 22.525119 -0.233016 -1.044681 0.000000 0.000000 0.000000 22.525102 -0.233014 -1.044681 -25.698162 10.045503 -1.883913 0.000000 0.000000 0.000000 22.525102 -0.233014 -1.044681 4.957428 -18.168884 31.734562 -73.124422 -15.655273 -5.604242 -14.257534 -56.993861 32.782579 0.000000 0.000000 0.000000 22.525102 -0.233014 -1.044681 10.130631 22.158373 -19.697089 -74.150050 46.992087 -5.532329 -32.523103 41.786595 -11.731345 0.000000 0.000000 0.000000 
2.972208 154.512573 -28.998772 0.000000 0.000000 0.000000 -2.065648 -7.812909 0.909316 -89.673260 15.768991 17.842360 66.429860 -10.526466 1.559880 5.564494 5.809026 -11.404957 0.000000 0.000000 0.000000 -2.065648 -7.812909 0.909316 -89.908239 -12.300098 -13.944528 61.210981 9.409002 -0.213987 -1.208628 -4.193496 12.048750 0.000000 0.000000 0.000000 -2.065648 -7.812909 0.909316 0.000000 -0.000001 0.000000 11.425164 0.223199 -0.330100 22.849746 -0.244379 -0.967200 0.000000 0.000000 0.000000 22.849746 -0.244378 -0.967198 -24.394292 10.240565 -1.742031 0.000000 0.000000 0.000000 22.849746 -0.244378 -0.967198 5.147310 -17.483792 32.861358 -72.404267 -14.421654 -3.938194 -18.180253 -55.484120 29.300029 0.000000 0.000000 0.000000 22.849746 -0.244378 -0.967198 10.579543 21.396071 -21.515815 -72.327592 45.952249 -8.728735 -33.944305 40.185609 -10.744705 0.000000 0.000000 0.000000 
2.721232 153.426010 -29.043819 0.000000 0.000000 0.000000 -2.851869 -7.709831 1.056875 -86.369012 17.636469 16.904611 60.991643 -12.633988 1.346285 5.859414 5.856480 -6.692032 0.000000 0.000000 0.000000 -2.851869 -7.709831 1.056875 -85.960171 -15.454778 -13.389076 52.279631 8.952653 0.193387 5.346093 -2.283484 9.873671 0.000000 0.000000 0.000000 -2.851869 -7.709831 1.056875 0.000000 0.000000 0.000000 11.509185 0.132666 -0.327131 23.017545 -0.255261 -0.881366 0.000000 0.000000 0.000000 23.017531 -0.255259 -0.881368 -22.914586 10.339473 -1.585265 0.000000 0.000000 0.000000 23.017531 -0.255259 -0.881368 5.058448 -16.552473 33.912302 -71.568758 -13.168053 -2.777419 -21.755568 -53.568723 25.644512 0.000000 0.000000 0.000000 23.017531 -0.255259 -0.881368 11.038708 20.184396 -23.873263 -71.352131 44.246625 -10.401462 -35.120327 38.850669 -10.056431 0.000000 0.000000 0.000000 
2.428907 152.233658 -28.965092 0.000000 0.000000 0.000000 -3.758310 -7.373612 1.337880 -78.368634 20.797069 14.575520 49.770892 -15.315366 0.983356 3.938221 5.943561 -2.644747 0.000000 0.000000 0.000000 -3.758310 -7.373612 1.337880 -82.811385 -18.052690 -13.096212 45.321194 8.371549 0.315050 11.029809 -0.751199 8.589883 0.000000 0.000000 0.000000 -3.758310 -7.373612 1.337880 0.000000 -0.000001 0.000000 11.534485 -0.167854 -0.429919 23.068267 -0.251979 -0.792932 0.000000 0.000000 0.000000 23.068243 -0.251979 -0.792933 -21.334031 10.368018 -1.436114 0.000000 0.000000 0.000000 23.068243 -0.251979 -0.792933 4.799668 -15.519954 34.873399 -70.672596 -12.229566 -2.008216 -24.953821 -51.061897 21.983606 0.000000 0.000000 0.000000 23.068243 -0.251979 -0.792933 11.581054 18.667698 -26.863706 -70.940264 41.650852 -10.947473 -36.237569 37.839272 -9.540470 0.000000 0.000000 0.000000 
2.141508 150.728378 -28.570732 0.000000 0.000000 0.000000 -4.833291 -7.157617 1.467365 -74.019744 22.826434 13.170118 42.595624 -16.626011 0.863448 9.370857 5.473315 -0.196951 0.000000 0.000000 0.000000 -4.833291 -7.157617 1.467365 -84.852458 -19.011232 -14.771981 49.769942 8.610802 0.181218 6.431983 -0.254846 8.562383 0.000000 0.000000 0.000000 -4.833291 -7.157617 1.467365 0.000000 0.000001 0.000000 11.524098 -0.232137 -0.424672 23.047896 -0.227261 -0.703353 0.000000 0.000000 0.000000 23.047881 -0.227261 -0.703354 -19.722755 10.349839 -1.312151 0.000000 0.000000 0.000000 23.047881 -0.227261 -0.703354 4.501756 -14.521501 35.751000 -69.727782 -11.772262 -1.413577 -27.740345 -47.885876 18.457748 0.000000 0.000000 0.000000 23.047881 -0.227261 -0.703354 12.242690 17.018050 -30.451049 -70.717948 38.069108 -10.863260 -37.434163 37.109019 -9.049471 0.000000 0.000000 0.000000 
